<?xml version="1.0" encoding="utf-8"?>
<!-- Generator: Adobe Illustrator 24.1.3, SVG Export Plug-In . SVG Version: 6.00 Build 0)  -->
<svg version="1.1" id="Layer_1" xmlns="http://www.w3.org/2000/svg" xmlns:xlink="http://www.w3.org/1999/xlink" x="0px" y="0px"
	 viewBox="0 0 391.4 270.2" style="enable-background:new 0 0 391.4 270.2;" xml:space="preserve">
<style type="text/css">
	.st0{opacity:0.7;fill:none;stroke:#636FB3;stroke-width:2;stroke-miterlimit:10;}
	.st1{opacity:0.7;fill:none;stroke:#636FB3;stroke-width:2;stroke-linecap:round;stroke-miterlimit:10;}
	.st2{opacity:0.7;fill:#636FB3;}
	.st3{opacity:0.7;fill:none;stroke:#636FB3;stroke-width:2;stroke-linecap:round;stroke-miterlimit:10;enable-background:new    ;}
</style>
<path class="st0" d="M134,15.4h149c9.3,0,16.9,7.6,16.9,16.9v200.8c0,9.3-7.6,16.9-16.9,16.9H134c-9.3,0-16.9-7.6-16.9-16.9V32.3
	C117.1,23,124.7,15.4,134,15.4z"/>
<line class="st0" x1="117.1" y1="188.5" x2="299.9" y2="188.5"/>
<line class="st1" x1="130" y1="205.3" x2="236.6" y2="205.3"/>
<path class="st2" d="M152,224.1h7.1c0.7,0,1.3,0.6,1.3,1.3v7.1c0,0.7-0.6,1.3-1.3,1.3H152c-0.7,0-1.3-0.6-1.3-1.3v-7.1
	C150.7,224.6,151.3,224.1,152,224.1z"/>
<path class="st2" d="M206.8,224.1h7.1c0.7,0,1.3,0.6,1.3,1.3v7.1c0,0.7-0.6,1.3-1.3,1.3h-7.1c-0.7,0-1.3-0.6-1.3-1.3v-7.1
	C205.5,224.6,206,224.1,206.8,224.1z"/>
<path class="st2" d="M261.5,224.1h7.1c0.7,0,1.3,0.6,1.3,1.3v7.1c0,0.7-0.6,1.3-1.3,1.3h-7.1c-0.7,0-1.3-0.6-1.3-1.3v-7.1
	C260.3,224.6,260.8,224.1,261.5,224.1z"/>
<path class="st2" d="M274.1,200.5h7.1c0.7,0,1.3,0.6,1.3,1.3v7.1c0,0.7-0.6,1.3-1.3,1.3h-7.1c-0.7,0-1.3-0.6-1.3-1.3v-7.1
	C272.8,201,273.4,200.5,274.1,200.5z"/>
<path class="st2" d="M168.1,91.4c-5.4,0-10.2-3.4-12-8.5c-0.4,1.3-0.6,2.6-0.6,3.9c0.1,6.9,5.8,12.5,12.7,12.4
	c6.9-0.1,12.5-5.8,12.4-12.7c0-1.3-0.3-2.7-0.7-3.9C178.3,87.9,173.5,91.4,168.1,91.4z"/>
<path class="st2" d="M249.2,91.4c-5.4,0.1-10.2-3.4-12-8.5c-2.1,6.6,1.6,13.7,8.2,15.7c6.6,2.1,13.7-1.6,15.7-8.2
	c0.8-2.6,0.8-5.3-0.1-7.8C259.4,87.9,254.7,91.4,249.2,91.4z"/>
<path class="st2" d="M208.4,141.6c9.6-0.1,17.8,2.3,20.7,5.6c0.7-0.7,1.1-1.7,1.1-2.6c0-4.6-9.8-8.3-21.8-8.2s-21.8,3.9-21.7,8.6
	c0,1,0.4,1.9,1.1,2.6C190.6,144.1,198.8,141.7,208.4,141.6z"/>
<line class="st3" x1="98.9" y1="1" x2="110" y2="1"/>
<line class="st3" x1="44.7" y1="1" x2="88" y2="1"/>
<line class="st3" x1="344.3" y1="4.9" x2="355.4" y2="4.9"/>
<line class="st3" x1="290.1" y1="4.9" x2="333.4" y2="4.9"/>
<line class="st3" x1="379.3" y1="104.4" x2="390.4" y2="104.4"/>
<line class="st3" x1="325.1" y1="104.4" x2="368.4" y2="104.4"/>
<line class="st3" x1="80.8" y1="116.3" x2="91.9" y2="116.3"/>
<line class="st3" x1="26.6" y1="116.3" x2="69.9" y2="116.3"/>
<line class="st3" x1="55.2" y1="228.9" x2="66.3" y2="228.9"/>
<line class="st3" x1="1" y1="228.9" x2="44.3" y2="228.9"/>
<line class="st3" x1="177" y1="269.2" x2="188.1" y2="269.2"/>
<line class="st3" x1="122.8" y1="269.2" x2="166.1" y2="269.2"/>
<line class="st3" x1="338.6" y1="222.1" x2="346.5" y2="222.1"/>
<line class="st3" x1="299.9" y1="222.1" x2="330.8" y2="222.1"/>
</svg>
